<?xml version="1.0" encoding="UTF-8" standalone="no"?>
<svg
   xmlns:dc="http://purl.org/dc/elements/1.1/"
   xmlns:cc="http://creativecommons.org/ns#"
   xmlns:rdf="http://www.w3.org/1999/02/22-rdf-syntax-ns#"
   xmlns:svg="http://www.w3.org/2000/svg"
   xmlns="http://www.w3.org/2000/svg"
   xmlns:xlink="http://www.w3.org/1999/xlink"
   xmlns:sodipodi="http://sodipodi.sourceforge.net/DTD/sodipodi-0.dtd"
   xmlns:inkscape="http://www.inkscape.org/namespaces/inkscape"
   width="210mm"
   height="280mm"
   viewBox="0 0 210 280"
   version="1.1"
   id="svg8"
   inkscape:version="1.0.2 (e86c870879, 2021-01-15, custom)"
   sodipodi:docname="pycellar-logo.svg"
   inkscape:export-filename="pycellar-logo.png"
   inkscape:export-xdpi="99.967148"
   inkscape:export-ydpi="99.967148">
  <defs
     id="defs2">
    <linearGradient
       id="linearGradient11301"
       inkscape:collect="always">
      <stop
         id="stop11303"
         offset="0"
         style="stop-color:#ffe052;stop-opacity:1" />
      <stop
         id="stop11305"
         offset="1"
         style="stop-color:#ffc331;stop-opacity:1" />
    </linearGradient>
    <linearGradient
       gradientUnits="userSpaceOnUse"
       y2="168.1012"
       x2="147.77737"
       y1="111.92053"
       x1="89.136749"
       id="linearGradient11307"
       xlink:href="#linearGradient11301"
       inkscape:collect="always" />
    <linearGradient
       id="linearGradient9515"
       inkscape:collect="always">
      <stop
         id="stop9517"
         offset="0"
         style="stop-color:#387eb8;stop-opacity:1" />
      <stop
         id="stop9519"
         offset="1"
         style="stop-color:#366994;stop-opacity:1" />
    </linearGradient>
    <linearGradient
       gradientUnits="userSpaceOnUse"
       y2="131.85291"
       x2="110.14919"
       y1="77.070274"
       x1="55.549179"
       id="linearGradient9521"
       xlink:href="#linearGradient9515"
       inkscape:collect="always" />
  </defs>
  <sodipodi:namedview
     id="base"
     pagecolor="#ffffff"
     bordercolor="#666666"
     borderopacity="1.0"
     inkscape:pageopacity="1"
     inkscape:pageshadow="2"
     inkscape:zoom="0.35"
     inkscape:cx="370.8452"
     inkscape:cy="243.16308"
     inkscape:document-units="mm"
     inkscape:current-layer="g847"
     inkscape:document-rotation="0"
     showgrid="false"
     inkscape:window-width="1267"
     inkscape:window-height="961"
     inkscape:window-x="52"
     inkscape:window-y="0"
     inkscape:window-maximized="0"
     fit-margin-top="0"
     fit-margin-left="0"
     fit-margin-right="0"
     fit-margin-bottom="0" />
  <metadata
     id="metadata5">
    <rdf:RDF>
      <cc:Work
         rdf:about="">
        <dc:format>image/svg+xml</dc:format>
        <dc:type
           rdf:resource="http://purl.org/dc/dcmitype/StillImage" />
        <dc:title></dc:title>
      </cc:Work>
    </rdf:RDF>
  </metadata>
  <g
     inkscape:label="Layer 1"
     inkscape:groupmode="layer"
     id="layer1"
     transform="translate(-76.627619,-24.205656)">
    <g
       id="g847"
       transform="translate(-46.869048,-15.119048)">
      <g
         id="g928"
         transform="translate(16.650465,15.204087)">
        <path
           id="path865"
           style="fill:#374837;stroke:none;stroke-width:0.264583px;stroke-linecap:butt;stroke-linejoin:miter;stroke-opacity:1"
           d="m 205.61118,39.325528 c -0.74615,0.04731 -0.99579,2.574872 -1.44952,4.485534 -0.51502,2.168763 -0.96778,-1.114584 -1.11104,6.084384 -0.0296,1.485847 1.10798,1.117971 1.29346,2.707323 0.70303,6.024271 0.84008,16.347069 -0.1571,24.429005 -3.72388,30.181336 -21.05126,66.555646 -21.6054,88.635416 -0.87911,35.02845 -0.49154,64.80379 0,75.53854 3.15211,6.33353 55.50978,7.1192 58.52924,0 0.49155,-10.73475 0.87911,-40.51009 0,-75.53854 -0.55413,-22.07977 -17.88151,-58.45408 -21.60539,-88.635416 -0.99718,-8.081936 -0.86013,-18.404734 -0.1571,-24.429005 0.18548,-1.589352 1.32254,-1.221476 1.29294,-2.707323 -0.14326,-7.198968 -0.59602,-3.915621 -1.11104,-6.084384 -0.46836,-1.97231 -0.71937,-4.602136 -1.52342,-4.482412 h -12.32173 c -0.0251,-0.0038 -0.0498,-0.0046 -0.0739,-0.0031 z"
           sodipodi:nodetypes="cscsssccssscscccc" />
        <path
           id="rect872"
           style="opacity:1;fill:#ffffff;stroke:none;stroke-width:0.999998;stroke-linecap:round"
           d="m 188.61015,178.48033 c 15.37103,1.03623 30.74206,0.97931 46.11309,0 v 47.24702 c -14.52116,2.6863 -29.8286,2.85587 -46.11309,0 z"
           sodipodi:nodetypes="ccccc" />
        <g
           id="g1894"
           transform="matrix(0.31275679,0,0,0.31275679,179.58875,163.63604)"
           style="stroke-width:0.845972">
          <path
             style="color:#000000;display:inline;overflow:visible;visibility:visible;opacity:1;fill:url(#linearGradient9521);fill-opacity:1;fill-rule:nonzero;stroke:none;stroke-width:0.845972;stroke-linecap:butt;stroke-linejoin:miter;stroke-miterlimit:4;stroke-dasharray:none;stroke-dashoffset:0;stroke-opacity:1;marker:none;marker-start:none;marker-mid:none;marker-end:none"
             d="M 99.75,67.46875 C 71.718268,67.468752 73.46875,79.625 73.46875,79.625 L 73.5,92.21875 h 26.75 V 96 H 62.875 c 0,0 -17.9375,-2.034276 -17.9375,26.25 -2e-6,28.28427 15.65625,27.28125 15.65625,27.28125 h 9.34375 v -13.125 c 0,0 -0.503652,-15.65625 15.40625,-15.65625 15.9099,0 26.53125,0 26.53125,0 0,0 14.90625,0.24096 14.90625,-14.40625 0,-14.647206 0,-24.21875 0,-24.21875 0,-2e-6 2.26318,-14.65625 -27.03125,-14.65625 z M 85,75.9375 c 2.661429,-2e-6 4.8125,2.151071 4.8125,4.8125 2e-6,2.661429 -2.151071,4.8125 -4.8125,4.8125 -2.661429,2e-6 -4.8125,-2.151071 -4.8125,-4.8125 -2e-6,-2.661429 2.151071,-4.8125 4.8125,-4.8125 z"
             id="path8615" />
          <path
             id="path8620"
             d="m 100.5461,177.31485 c 28.03174,0 26.28125,-12.15625 26.28125,-12.15625 l -0.0312,-12.59375 h -26.75 v -3.78125 h 37.375 c 0,0 17.9375,2.03427 17.9375,-26.25001 10e-6,-28.284267 -15.65625,-27.281247 -15.65625,-27.281247 h -9.34375 v 13.124997 c 0,0 0.50366,15.65625 -15.40625,15.65625 -15.909902,0 -26.531252,0 -26.531252,0 0,0 -14.90625,-0.24096 -14.90625,14.40626 0,14.6472 0,24.21875 0,24.21875 0,0 -2.26318,14.65625 27.031252,14.65625 z m 14.75,-8.46875 c -2.66143,0 -4.8125,-2.15107 -4.8125,-4.8125 0,-2.66143 2.15107,-4.8125 4.8125,-4.8125 2.66143,0 4.8125,2.15107 4.8125,4.8125 1e-5,2.66143 -2.15107,4.8125 -4.8125,4.8125 z"
             style="color:#000000;display:inline;overflow:visible;visibility:visible;opacity:1;fill:url(#linearGradient11307);fill-opacity:1;fill-rule:nonzero;stroke:none;stroke-width:0.845972;stroke-linecap:butt;stroke-linejoin:miter;stroke-miterlimit:4;stroke-dasharray:none;stroke-dashoffset:0;stroke-opacity:1;marker:none;marker-start:none;marker-mid:none;marker-end:none" />
        </g>
      </g>
      <text
         xml:space="preserve"
         style="font-size:41.5909px;line-height:1.25;font-family:Charter;-inkscape-font-specification:Charter;fill:#3770a0;fill-opacity:1;stroke-width:0.264583"
         x="128.2764"
         y="303.81601"
         id="text921"><tspan
           sodipodi:role="line"
           id="tspan919"
           x="128.2764"
           y="303.81601"
           style="font-style:normal;font-variant:normal;font-weight:normal;font-stretch:normal;font-size:41.5909px;font-family:Bahnschrift;-inkscape-font-specification:Bahnschrift;fill:#3770a0;fill-opacity:1;stroke-width:0.264583">PYCELLAR</tspan></text>
    </g>
  </g>
</svg>
