<?xml version="1.0" encoding="UTF-8" standalone="no"?>
<svg
   xmlns:dc="http://purl.org/dc/elements/1.1/"
   xmlns:cc="http://creativecommons.org/ns#"
   xmlns:rdf="http://www.w3.org/1999/02/22-rdf-syntax-ns#"
   xmlns:svg="http://www.w3.org/2000/svg"
   xmlns="http://www.w3.org/2000/svg"
   xmlns:sodipodi="http://sodipodi.sourceforge.net/DTD/sodipodi-0.dtd"
   xmlns:inkscape="http://www.inkscape.org/namespaces/inkscape"
   width="80"
   height="80"
   viewBox="0 0 21.166666 21.166667"
   version="1.1"
   id="svg8"
   inkscape:version="1.0.2 (e86c870879, 2021-01-15, custom)"
   sodipodi:docname="random.svg"
   inkscape:export-filename="random.png"
   inkscape:export-xdpi="150"
   inkscape:export-ydpi="150">
  <defs
     id="defs2" />
  <sodipodi:namedview
     id="base"
     pagecolor="#ffffff"
     bordercolor="#666666"
     borderopacity="1.0"
     inkscape:pageopacity="0.0"
     inkscape:pageshadow="2"
     inkscape:zoom="5.6"
     inkscape:cx="1.4151294"
     inkscape:cy="23.264015"
     inkscape:document-units="mm"
     inkscape:current-layer="layer1"
     inkscape:document-rotation="0"
     showgrid="false"
     units="px"
     inkscape:window-width="1920"
     inkscape:window-height="1017"
     inkscape:window-x="-8"
     inkscape:window-y="-8"
     inkscape:window-maximized="1"
     inkscape:snap-bbox="true"
     inkscape:snap-bbox-midpoints="true"
     inkscape:snap-object-midpoints="true"
     inkscape:snap-center="true"
     inkscape:snap-global="false" />
  <metadata
     id="metadata5">
    <rdf:RDF>
      <cc:Work
         rdf:about="">
        <dc:format>image/svg+xml</dc:format>
        <dc:type
           rdf:resource="http://purl.org/dc/dcmitype/StillImage" />
        <dc:title></dc:title>
      </cc:Work>
    </rdf:RDF>
  </metadata>
  <g
     inkscape:label="Layer 1"
     inkscape:groupmode="layer"
     id="layer1">
    <path
       style="fill:#ffffff;stroke-width:0.999997"
       d="M 6.4047731,20.056912 C 5.9026059,19.993723 5.4440286,19.81398 5.0605767,19.53004 4.9214706,19.427033 4.6948679,19.222384 4.1624833,18.718958 4.0868745,18.647462 3.9233689,18.494865 3.7991373,18.379854 3.4535196,18.05989 2.6030467,17.267723 2.4761522,17.14757 2.4140364,17.088752 2.1780771,16.867698 1.9517982,16.656337 1.7255192,16.444975 1.4877113,16.216573 1.4233359,16.148775 1.082028,15.789323 0.84242718,15.318996 0.73857293,14.804609 0.70697156,14.648088 0.70173986,14.573208 0.70213187,14.283038 0.7024755,14.028272 0.70949837,13.909626 0.73043971,13.804749 0.79667151,13.47305 1.8609513,9.2406664 1.9101867,9.1131798 2.1880857,8.3936074 2.7570125,7.8227109 3.4640297,7.5539566 3.6314202,7.4903275 8.1030857,6.214151 8.2682464,6.1828728 8.3481099,6.1677435 8.5078357,6.1508762 8.6231935,6.1453788 l 0.2097417,-0.01 -0.00357,-0.088738 c -0.00195,-0.048799 -0.00522,-0.2266761 -0.00725,-0.3952761 -0.0032,-0.2647906 0.00115,-0.3289355 0.0319,-0.4709247 C 8.9595877,4.6929061 9.180469,4.2993281 9.5450925,3.9490483 9.6237124,3.873521 9.8586555,3.6552699 10.067187,3.464046 10.903073,2.6975366 11.69152,1.973589 12.039451,1.6531263 c 0.541854,-0.4990768 0.682701,-0.6035538 0.995417,-0.73837274 0.34093,-0.14698373 0.62273,-0.19925739 1.009342,-0.18723329 0.308669,0.009601 0.342811,0.0166836 1.022126,0.21208819 2.243209,0.64525484 3.290074,0.94965554 3.392226,0.98637044 0.315981,0.113566 0.615496,0.3047139 0.858639,0.5479725 0.179047,0.1791306 0.306089,0.3523333 0.423901,0.5779245 0.161312,0.3088839 0.09767,0.063352 0.851473,3.2851832 0.266457,1.138866 0.282155,1.2367165 0.25235,1.5730618 -0.03724,0.4202231 -0.163872,0.7866562 -0.391884,1.1339664 -0.141278,0.2152031 -0.274923,0.3520516 -0.891015,0.9124161 -0.292832,0.2663426 -0.572491,0.5210996 -0.621467,0.5661256 -0.111801,0.10278 -1.490987,1.347849 -1.667707,1.50553 -0.667666,0.595726 -1.470959,0.787327 -2.311452,0.551321 -0.09555,-0.02683 -0.189429,-0.04484 -0.208632,-0.04001 -0.04373,0.01102 -0.05988,0.05178 -0.112122,0.283452 -0.03914,0.17356 -0.299958,1.278556 -0.386529,1.637598 -0.02139,0.08874 -0.148415,0.622368 -0.282275,1.185846 -0.133851,0.563479 -0.261098,1.089849 -0.282768,1.169713 -0.237381,0.874864 -0.885539,1.579886 -1.734635,1.886819 -0.131754,0.04762 -1.265666,0.371122 -2.4842123,0.708726 -0.2085314,0.05777 -0.7639433,0.21167 -1.2342483,0.341989 -1.093733,0.303067 -1.0707871,0.298275 -1.4601241,0.304988 -0.1730368,0.0029 -0.3400233,0.0023 -0.3710812,-0.0017 z m 0.8793012,-0.466086 c 0.2759687,-0.04155 0.416324,-0.07923 2.0328799,-0.54555 0.4170623,-0.120314 1.1455228,-0.328077 1.6188018,-0.461703 0.473277,-0.133622 0.927044,-0.270375 1.008373,-0.303886 0.383465,-0.158009 0.735081,-0.434505 0.999529,-0.785989 0.120775,-0.160528 0.278292,-0.46347 0.342845,-0.659386 0.023,-0.06982 0.193335,-0.741406 0.378505,-1.492392 0.18517,-0.750985 0.424544,-1.721181 0.531942,-2.155991 0.107406,-0.434811 0.206617,-0.859538 0.220485,-0.943837 0.03226,-0.196112 0.02252,-0.675099 -0.01623,-0.798633 -0.05248,-0.167244 -0.181658,-0.265194 -0.350614,-0.265853 -0.09307,-3.73e-4 -0.178532,0.02146 -1.159952,0.296063 -0.862496,0.24134 -1.712146,0.4787 -1.911876,0.534102 -0.859534,0.238431 -2.306302,0.643564 -2.3716929,0.664137 -0.3517355,0.110652 -0.6318792,0.292516 -0.742104,0.481753 -0.073663,0.12647 -0.1416088,0.363875 -0.2909017,1.01644 -0.2079416,0.908917 -0.4849193,2.098737 -0.6854366,2.944449 -0.1011074,0.426435 -0.3858678,1.638203 -0.4284298,1.823138 -0.065331,0.283872 -0.049953,0.42202 0.060295,0.541627 0.09618,0.104344 0.1881301,0.134142 0.4167107,0.135061 0.1020477,4.03e-4 0.2581435,-0.01026 0.3468803,-0.02355 z m 1.5729573,-2.151511 c -0.1604927,-0.05289 -0.2420771,-0.151828 -0.2758437,-0.334484 -0.045458,-0.245905 0.08234,-0.56627 0.32435,-0.813083 0.2881417,-0.29386 0.6569619,-0.352872 0.8373878,-0.133989 0.153919,0.186729 0.1240662,0.531272 -0.072767,0.839845 -0.1562083,0.244891 -0.4344438,0.433799 -0.6597571,0.447943 -0.062116,0.0038 -0.1311348,0.0011 -0.1533771,-0.0063 z m 2.7832134,-3.015984 c -0.192061,-0.09041 -0.27662,-0.329828 -0.209323,-0.592688 0.107283,-0.41908 0.467572,-0.772728 0.809589,-0.794678 0.148567,-0.0095 0.238253,0.02196 0.319912,0.112352 0.08966,0.09924 0.11079,0.161582 0.111143,0.328022 7.75e-4,0.358196 -0.255893,0.747262 -0.603772,0.915227 -0.135857,0.06558 -0.325718,0.0797 -0.42755,0.03176 z M 5.7553265,19.33988 c 0.1809192,-0.0611 0.2996712,-0.207332 0.3724696,-0.458662 0.017993,-0.06211 0.084478,-0.316225 0.1477478,-0.564688 0.063269,-0.248463 0.1736481,-0.68045 0.2452867,-0.959971 0.071639,-0.279521 0.2055875,-0.802261 0.2976641,-1.161646 C 7.0860998,15.150421 7.4559619,13.681956 7.488998,13.532809 7.508121,13.446469 7.519662,13.329922 7.520153,13.218196 7.5210885,13.004723 7.479025,12.851967 7.36688,12.661575 7.2829509,12.519087 7.19171,12.424169 6.5903137,11.853714 6.0029054,11.296526 3.7413174,9.1340782 3.2734022,8.6822034 3.0465557,8.4631332 2.9506539,8.4034046 2.8044737,8.3901496 2.7256374,8.383001 2.6976893,8.3883558 2.6229236,8.4249353 2.4592053,8.5050352 2.277405,8.7541572 2.1296153,9.1009182 2.0471193,9.2944778 2.0183355,9.4068828 1.6278679,11.060278 c -0.096923,0.410408 -0.2565021,1.085615 -0.3546214,1.500459 -0.32832839,1.38816 -0.33381229,1.418561 -0.31598026,1.751664 0.0286813,0.535776 0.23244566,1.045757 0.58473666,1.463484 0.080571,0.09554 0.5391628,0.532625 1.0054123,0.958268 0.1125034,0.102704 0.3573364,0.330268 0.6620465,0.615344 0.066986,0.06267 0.2887772,0.269794 0.4928719,0.46028 0.2040947,0.190484 0.5888898,0.549707 0.8551002,0.798278 0.5406788,0.504847 0.663727,0.612488 0.7740598,0.677149 0.1632208,0.09565 0.2639928,0.108661 0.4238329,0.05468 z M 4.9024148,17.286847 C 4.7435374,17.227449 4.6274954,17.11006 4.5328813,16.913024 4.4205112,16.679013 4.3906278,16.396743 4.4525779,16.154516 c 0.039672,-0.155112 0.089715,-0.242979 0.1873242,-0.328898 0.2322652,-0.204447 0.5475475,-0.08317 0.7240729,0.278538 0.2156517,0.441872 0.131343,1.002248 -0.1742422,1.158145 -0.081586,0.04162 -0.2118674,0.05275 -0.2873191,0.02454 z m -0.7321962,-2.65576 c -0.4176494,-0.103638 -0.6596899,-0.822329 -0.4360202,-1.29468 0.091684,-0.193622 0.2318465,-0.282576 0.421277,-0.267371 0.089046,0.0072 0.1206178,0.01847 0.1955725,0.07009 0.3268384,0.225102 0.4620034,0.81461 0.2807351,1.224397 -0.083557,0.188896 -0.2918991,0.309671 -0.4615644,0.267569 z m -0.7853925,-2.6529 c -0.1916395,-0.05315 -0.3847862,-0.299567 -0.457082,-0.583129 -0.082453,-0.323401 -0.020766,-0.673057 0.1504858,-0.85299 0.1725109,-0.181254 0.4437518,-0.161453 0.6268977,0.04577 0.08553,0.09676 0.1858819,0.298445 0.2215501,0.44524 0.033523,0.13797 0.033672,0.407356 2.951e-4,0.536162 -0.080396,0.310257 -0.3002044,0.476064 -0.5421469,0.408951 z m 4.9458191,0.521526 c 0.092523,-0.01056 0.2948776,-0.06151 0.5727558,-0.144111 0.9478584,-0.281737 1.198709,-0.355996 1.443569,-0.427345 0.140574,-0.04096 0.449133,-0.131708 0.685693,-0.201647 0.23656,-0.06995 0.96374,-0.281081 1.615955,-0.46919 0.652216,-0.188111 1.21216,-0.355387 1.244321,-0.371727 0.06816,-0.03464 0.138919,-0.113302 0.15324,-0.170384 0.03683,-0.146744 -0.0976,-0.335348 -0.527019,-0.7393395 C 13.444115,9.9053689 13.324632,9.7924949 13.253642,9.7251409 13.182652,9.6577868 12.87409,9.3672207 12.567949,9.0794386 12.261806,8.7916565 11.873369,8.4253516 11.704752,8.2654278 10.929135,7.5297902 10.372852,7.0102745 10.275468,6.9306077 9.8608621,6.5914336 9.3794711,6.4102164 8.8402879,6.3903408 8.5381515,6.3792033 8.3580808,6.3983181 8.0746387,6.4716151 7.8289947,6.5351377 3.9681481,7.6078918 3.7426686,7.6752731 3.2823567,7.8128301 3.1249681,7.9255532 3.1249681,8.1176736 c 0,0.156618 0.032178,0.1970585 0.5201326,0.6536916 0.7589545,0.7102374 1.4313098,1.3365428 1.7675273,1.6464698 0.177422,0.163548 0.4024485,0.370976 0.500059,0.460948 0.09761,0.08998 0.3299397,0.304193 0.5162869,0.47604 0.1863475,0.171849 0.3751352,0.345587 0.4195287,0.386086 0.044394,0.0405 0.1666893,0.153495 0.271769,0.251106 0.3368632,0.312917 0.5132612,0.424602 0.7607594,0.481662 0.099809,0.02302 0.1439916,0.02943 0.2742775,0.03985 0.017748,0.0015 0.096648,-0.0048 0.1753367,-0.01379 z m 0.445821,-2.4704 C 8.414121,9.993062 8.0452548,9.7855021 7.9400604,9.558671 7.8970422,9.4659111 7.8910061,9.3316168 7.9267482,9.2624991 c 0.038921,-0.075264 0.1430355,-0.1592946 0.246617,-0.1990436 0.069143,-0.026533 0.1419595,-0.038568 0.2684334,-0.04436 0.2523897,-0.011561 0.4680761,0.036519 0.697593,0.1555074 0.1294213,0.067096 0.2937751,0.2207032 0.3381086,0.3159999 0.096986,0.2084781 0.00521,0.4042218 -0.2318687,0.4944783 -0.1037565,0.039508 -0.3162257,0.059537 -0.4691653,0.04424 z m 6.8092548,2.276946 c 0.079,-0.04031 0.166321,-0.14065 0.200672,-0.230588 0.04496,-0.117711 0.02705,-0.295846 -0.07736,-0.769349 C 15.608132,10.848709 15.391763,9.8549109 15.255901,9.2250395 15.207093,8.9987607 15.100946,8.5159516 15.020018,8.1521307 14.939091,7.7883096 14.854937,7.407556 14.833009,7.3060111 14.753114,6.9360375 14.663002,6.7487098 14.49048,6.593962 14.375649,6.4909622 14.162702,6.3868705 13.931268,6.3206121 13.74798,6.2681373 10.400526,5.2393613 9.8029099,5.0518399 9.4998804,4.9567545 9.4553018,4.9467816 9.3592257,4.9525807 9.0988238,4.9682981 8.9859878,5.176423 8.986303,5.6404327 c 9.69e-5,0.1479071 0.037432,0.4364311 0.062532,0.4833014 0.010734,0.020051 0.06758,0.03791 0.2042201,0.064163 0.4846469,0.093115 0.9220169,0.3049878 1.2827829,0.6214115 0.129793,0.1138356 0.756833,0.6899821 1.636829,1.5039611 0.221841,0.2051999 0.552595,0.5106294 0.735009,0.6787321 0.182413,0.1681027 0.497069,0.4581071 0.699233,0.6444544 0.543258,0.5007518 0.705704,0.6992828 0.897606,1.0969868 0.182803,0.378846 0.259198,0.704436 0.266228,1.134645 0.0059,0.352703 -0.0024,0.340905 0.292477,0.420114 0.264435,0.07102 0.408901,0.07602 0.522501,0.01806 z M 13.460622,8.3871415 c -0.30227,-0.108819 -0.57019,-0.4836691 -0.569904,-0.7973657 1.61e-4,-0.1317319 0.02346,-0.2090974 0.08385,-0.2778767 0.07319,-0.083344 0.133821,-0.1094683 0.255054,-0.1098864 0.158015,-5.452e-4 0.293161,0.068165 0.450441,0.2290068 0.183576,0.1877324 0.274804,0.3922932 0.27521,0.6171065 5.17e-4,0.2841653 -0.222482,0.4369988 -0.494655,0.3390155 z m 3.122108,3.6460765 c 0.257906,-0.08688 0.519553,-0.286372 1.164346,-0.887741 0.128736,-0.120069 0.313874,-0.291591 0.411417,-0.381161 0.09754,-0.08957 0.322777,-0.296492 0.500523,-0.459819 0.177745,-0.163329 0.395554,-0.3627153 0.484019,-0.4430843 0.81085,-0.7366389 0.893459,-0.8186534 1.030848,-1.0234279 C 20.325391,8.6121683 20.446841,8.302657 20.49317,8.0242943 20.517607,7.8775004 20.51663,7.5208792 20.491509,7.3857672 20.473891,7.2914328 20.384035,6.8891185 20.084322,5.562629 20.031129,5.3274765 19.955807,4.9935033 19.916879,4.8204665 19.877952,4.6474297 19.81262,4.3570183 19.771694,4.1751077 19.608521,3.4498196 19.575477,3.346195 19.422726,3.0807353 19.309073,2.8832231 19.269749,2.8374004 19.176697,2.794075 19.077587,2.747929 19.019321,2.746043 18.931064,2.786135 18.863974,2.816599 18.792191,2.880226 17.392005,4.150137 16.961631,4.5404686 16.41348,5.0375929 16.173891,5.2548581 15.305961,6.041916 15.223934,6.1196757 15.134336,6.240313 c -0.17257,0.232354 -0.218085,0.3978852 -0.180339,0.6558563 0.01026,0.069629 0.06204,0.3044731 0.1152,0.5218783 0.150221,0.6141394 0.381998,1.5743331 0.459563,1.9038082 0.289601,1.2301632 0.590414,2.4701852 0.611073,2.5189842 0.05479,0.129411 0.178607,0.222645 0.296735,0.223435 0.02913,1.95e-4 0.09489,-0.01378 0.146147,-0.03104 z M 17.770287,7.7647195 C 17.682737,7.7202605 17.607623,7.6303154 17.561575,7.514839 17.518945,7.4079418 17.509555,7.1332376 17.543905,6.9983504 17.603625,6.7638892 17.736198,6.5699905 17.88656,6.497202 c 0.102766,-0.049751 0.23835,-0.038779 0.33239,0.026897 0.284315,0.1985671 0.267417,0.8413936 -0.03006,1.1436656 -0.134999,0.1371743 -0.275388,0.1696898 -0.418602,0.096954 z M 14.681498,6.1508439 c 0.165383,-0.038477 0.38055,-0.1535538 0.517484,-0.2767643 0.06589,-0.059291 0.344877,-0.3190253 0.619962,-0.577189 0.275083,-0.2581637 0.710701,-0.664699 0.968036,-0.9034117 0.257337,-0.2387128 0.522402,-0.4853305 0.589032,-0.5480392 0.06663,-0.062708 0.386081,-0.3584146 0.709894,-0.657124 0.323812,-0.2987095 0.601454,-0.56483 0.616983,-0.5913792 0.03406,-0.058225 0.0365,-0.1500571 0.0055,-0.2094667 -0.0287,-0.055092 -0.15798,-0.1329779 -0.324187,-0.1952986 C 18.22378,2.1320184 14.544039,1.0275601 14.366845,0.98637891 14.26457,0.96261004 14.174121,0.95646793 13.931227,0.95679721 13.599963,0.95724726 13.474101,0.97765513 13.221333,1.0719007 12.909116,1.1883288 12.710744,1.3237078 12.276774,1.7165461 12.121065,1.8574965 11.848804,2.1041153 11.67175,2.2645868 11.494696,2.4250579 11.182847,2.70743 10.978752,2.8920803 9.5027113,4.2274977 9.4446171,4.2828238 9.3883781,4.4066789 c -0.040765,0.089775 -0.039737,0.1943111 0.00259,0.2627862 0.065529,0.1060274 0.035315,0.095524 1.5877909,0.5519468 0.748619,0.2200913 0.954696,0.2800188 1.645664,0.4785627 0.328327,0.094342 0.785725,0.2260233 1.01644,0.2926255 0.230718,0.066603 0.473936,0.1345251 0.540489,0.1509391 0.148859,0.036714 0.360458,0.039805 0.500153,0.00731 z M 13.97967,5.2492937 C 13.849601,5.212253 13.817276,5.196718 13.753184,5.1404456 13.552053,4.9638495 13.654584,4.69823 13.989063,4.5293866 c 0.29531,-0.1490725 0.737069,-0.1528854 0.927022,-0.00801 0.108018,0.082393 0.147036,0.2201409 0.09657,0.3409378 -0.03289,0.07872 -0.17615,0.2141538 -0.291573,0.2756475 C 14.51356,5.248522 14.162238,5.3012745 13.979675,5.249286 Z M 11.31023,4.4156273 c -0.108446,-0.021258 -0.237811,-0.091004 -0.286012,-0.1541987 -0.06225,-0.081602 -0.06992,-0.2032294 -0.01926,-0.3046877 0.07322,-0.1466346 0.280671,-0.2825531 0.529782,-0.3471254 0.112872,-0.02926 0.16778,-0.034084 0.324343,-0.028502 0.173404,0.00618 0.197067,0.010948 0.296046,0.05968 0.40557,0.1996624 0.145274,0.6578893 -0.437016,0.7692984 -0.13235,0.025321 -0.295639,0.027539 -0.407886,0.00553 z M 16.113015,3.3379467 C 15.937374,3.2798444 15.84331,3.1763386 15.843204,3.0410538 c 0,-0.096218 0.04079,-0.1788381 0.135138,-0.2731812 0.235151,-0.235151 0.772358,-0.3275768 1.058177,-0.1820578 0.08839,0.045002 0.135933,0.093692 0.169174,0.1732395 0.03369,0.080636 0.03134,0.1190221 -0.01301,0.2144001 -0.06724,0.1443866 -0.257257,0.2806072 -0.494387,0.3544126 -0.05611,0.017463 -0.162899,0.030059 -0.290412,0.034255 -0.167618,0.00551 -0.217404,0.00144 -0.294817,-0.024176 z M 13.427751,2.4322511 C 13.036242,2.3789249 12.910679,2.073756 13.180452,1.8312081 13.509764,1.535128 14.151943,1.4948957 14.362689,1.757142 14.615281,2.0714573 14.006466,2.5110759 13.427751,2.4322511 Z"
       id="path872" />
  </g>
</svg>
