<?xml version="1.0" encoding="UTF-8" standalone="no"?>
<svg
   xmlns:dc="http://purl.org/dc/elements/1.1/"
   xmlns:cc="http://creativecommons.org/ns#"
   xmlns:rdf="http://www.w3.org/1999/02/22-rdf-syntax-ns#"
   xmlns:svg="http://www.w3.org/2000/svg"
   xmlns="http://www.w3.org/2000/svg"
   xmlns:sodipodi="http://sodipodi.sourceforge.net/DTD/sodipodi-0.dtd"
   xmlns:inkscape="http://www.inkscape.org/namespaces/inkscape"
   width="180mm"
   height="180mm"
   viewBox="0 0 180 180"
   version="1.1"
   id="svg8"
   inkscape:version="1.0.2 (e86c870879, 2021-01-15, custom)"
   sodipodi:docname="cellarlogo.svg"
   inkscape:export-filename="cellarlogo.png"
   inkscape:export-xdpi="150"
   inkscape:export-ydpi="150">
  <defs
     id="defs2">
    <inkscape:path-effect
       effect="spiro"
       id="path-effect849"
       is_visible="true"
       lpeversion="1" />
  </defs>
  <sodipodi:namedview
     id="base"
     pagecolor="#000000"
     bordercolor="#666666"
     borderopacity="1.0"
     inkscape:pageopacity="0"
     inkscape:pageshadow="2"
     inkscape:zoom="0.98994949"
     inkscape:cx="389.52464"
     inkscape:cy="258.49035"
     inkscape:document-units="mm"
     inkscape:current-layer="layer1"
     inkscape:document-rotation="0"
     showgrid="false"
     inkscape:window-width="1920"
     inkscape:window-height="1017"
     inkscape:window-x="-8"
     inkscape:window-y="-8"
     inkscape:window-maximized="1"
     inkscape:snap-global="true"
     inkscape:snap-bbox="true"
     inkscape:snap-page="true"
     fit-margin-top="0"
     fit-margin-left="0"
     fit-margin-right="0"
     fit-margin-bottom="0" />
  <metadata
     id="metadata5">
    <rdf:RDF>
      <cc:Work
         rdf:about="">
        <dc:format>image/svg+xml</dc:format>
        <dc:type
           rdf:resource="http://purl.org/dc/dcmitype/StillImage" />
        <dc:title />
      </cc:Work>
    </rdf:RDF>
  </metadata>
  <g
     inkscape:label="Layer 1"
     inkscape:groupmode="layer"
     id="layer1"
     transform="translate(-46.113155,-72.088104)">
    <path
       id="path839"
       style="color:#000000;font-style:normal;font-variant:normal;font-weight:normal;font-stretch:normal;font-size:medium;line-height:normal;font-family:sans-serif;font-variant-ligatures:normal;font-variant-position:normal;font-variant-caps:normal;font-variant-numeric:normal;font-variant-alternates:normal;font-variant-east-asian:normal;font-feature-settings:normal;font-variation-settings:normal;text-indent:0;text-align:start;text-decoration:none;text-decoration-line:none;text-decoration-style:solid;text-decoration-color:#000000;letter-spacing:normal;word-spacing:normal;text-transform:none;writing-mode:lr-tb;direction:ltr;text-orientation:mixed;dominant-baseline:auto;baseline-shift:baseline;text-anchor:start;white-space:normal;shape-padding:0;shape-margin:0;inline-size:0;clip-rule:nonzero;display:inline;overflow:visible;visibility:visible;opacity:1;isolation:auto;mix-blend-mode:normal;color-interpolation:sRGB;color-interpolation-filters:linearRGB;solid-color:#000000;solid-opacity:1;vector-effect:none;fill:#ffffff;fill-opacity:1;fill-rule:nonzero;stroke:none;stroke-width:0.25;stroke-linecap:butt;stroke-linejoin:miter;stroke-miterlimit:4;stroke-dasharray:none;stroke-dashoffset:0;stroke-opacity:1;color-rendering:auto;image-rendering:auto;shape-rendering:auto;text-rendering:auto;enable-background:accumulate;stop-color:#000000;stop-opacity:1"
       d="m 111.95081,80.757566 c 0,0 -8.66688,9.233408 -17.335892,21.358904 -8.66901,12.12549 -17.388605,27.11318 -17.388605,38.89271 0,19.83367 14.758882,45.28291 29.468487,65.85748 13.5617,18.96898 27.12269,33.77555 29.15663,35.96991 0.17216,0.18574 0.26173,0.58207 0.26173,0.58207 0,0 0.0874,-0.40079 0.25546,-0.58207 2.01215,-2.17051 15.58716,-16.9813 29.1629,-35.96991 C 180.24114,186.29209 195,160.84285 195,141.00918 c 0,-11.77953 -8.71958,-26.76722 -17.3886,-38.89271 -8.66901,-12.125496 -17.33589,-21.358904 -17.33589,-21.358904 1.07088,1.732661 2.59958,3.868976 4.14032,5.896798 1.22616,1.630712 2.26908,2.962063 3.29385,4.271574 2.77795,3.380972 5.8582,7.251374 9.08937,11.770862 8.6253,12.06434 17.20101,27.03286 17.20101,38.31238 0,19.33366 -14.61707,44.76219 -29.28296,65.27561 -12.82609,17.94006 -25.58504,32.09262 -28.58482,35.36166 -2.95204,-3.20726 -15.75707,-17.36579 -28.62306,-35.36166 -14.665885,-20.51342 -29.282968,-45.94195 -29.282968,-65.27561 0,-11.27952 8.575723,-26.24804 17.201018,-38.31238 3.231163,-4.519488 6.31142,-8.38989 9.08937,-11.770862 1.02476,-1.309508 2.06769,-2.640862 3.29385,-4.271574 1.54074,-2.027822 3.06944,-4.164139 4.14032,-5.896798 z"
       sodipodi:nodetypes="cssssssssscccssscsssccc" />
    <text
       xml:space="preserve"
       style="font-style:normal;font-variant:normal;font-weight:normal;font-stretch:normal;font-size:75.5684px;line-height:1.25;font-family:parchment;-inkscape-font-specification:parchment;text-align:center;text-anchor:middle;fill:#ffffff;stroke:none;stroke-width:0.264582"
       x="135.81796"
       y="158.86932"
       id="text863"><tspan
         sodipodi:role="line"
         id="tspan861"
         x="135.81796"
         y="158.86932"
         style="font-style:normal;font-variant:normal;font-weight:normal;font-stretch:normal;font-size:75.5684px;font-family:parchment;-inkscape-font-specification:parchment;text-align:center;text-anchor:middle;fill:#ffffff;stroke:none;stroke-width:0.264582">K</tspan></text>
  </g>
</svg>
